<svg width="566" height="291" viewBox="0 0 566 291" fill="none" xmlns="http://www.w3.org/2000/svg">
<path d="M566 183.794V229.739H520.11C507.439 229.739 495.964 224.587 487.659 216.284C479.354 207.969 474.22 196.48 474.22 183.794H520.11V137.848C545.462 137.848 566 158.423 566 183.794Z" fill="black"/>
<path d="M520.11 91.9028V137.848C507.44 137.848 495.964 142.989 487.659 151.304C479.354 159.619 474.22 171.108 474.22 183.794H428.33C428.33 133.039 469.417 91.9028 520.11 91.9028Z" fill="black"/>
<path d="M428.33 245.054C428.33 257.728 423.184 269.241 414.903 277.544C406.598 285.859 395.123 291 382.44 291V245.054H428.33Z" fill="black"/>
<path d="M428.33 183.794H382.44V245.055H428.33V183.794Z" fill="black"/>
<path d="M351.835 183.794V229.739C339.165 229.739 327.69 224.587 319.385 216.284C311.08 207.969 305.945 196.48 305.945 183.794H351.835Z" fill="black"/>
<path d="M168.275 183.794H260.055V229.739H214.165C188.813 229.739 168.275 209.165 168.275 183.794Z" fill="black"/>
<path d="M122.373 183.794V229.739H91.7913C66.4507 229.739 45.9014 209.165 45.9014 183.794H122.373Z" fill="black"/>
<path d="M122.376 183.796H168.266V107.221H122.376V183.796Z" fill="black"/>
<path d="M45.9018 61.2607V183.794C20.5493 183.794 0 163.22 0 137.848V61.2607H45.9018Z" fill="black"/>
<path d="M305.945 183.794H260.055C260.055 158.411 239.517 137.848 214.165 137.848V91.9028C264.858 91.9028 305.945 133.028 305.945 183.794Z" fill="black"/>
<path d="M106.468 273.325C109.381 260.974 101.742 248.598 89.4065 245.681C77.0708 242.765 64.7094 250.413 61.7966 262.764C58.8838 275.114 66.5225 287.491 78.8583 290.407C91.194 293.323 103.555 285.675 106.468 273.325Z" fill="black"/>
<path d="M45.89 30.6304H0V45.9455H45.89V30.6304Z" fill="black"/>
<path d="M45.89 0H0V15.3152H45.89V0Z" fill="black"/>
</svg>
