<svg width="423" height="254" viewBox="0 0 423 254" fill="none" xmlns="http://www.w3.org/2000/svg">
<path d="M423.001 169.23V253.843H338.387C315.037 253.843 293.875 244.389 278.552 229.065C263.26 213.741 253.773 192.612 253.773 169.23H338.387V84.616C385.12 84.616 423.001 122.497 423.001 169.23Z" fill="black"/>
<path d="M338.389 0V84.6136C315.038 84.6136 293.877 94.068 278.585 109.392C263.261 124.684 253.807 145.845 253.807 169.196H169.193C169.193 75.762 244.955 0 338.389 0Z" fill="black"/>
<path d="M169.196 169.227C169.196 192.577 159.741 213.739 144.417 229.062C129.125 244.354 107.964 253.84 84.6136 253.84C37.881 253.84 0 215.959 0 169.227H169.196Z" fill="black"/>
</svg>
