<svg width="94" height="64" viewBox="0 0 94 64" fill="none" xmlns="http://www.w3.org/2000/svg">
<path d="M78.9998 38.401V51.2029H66.1979C62.665 51.2029 59.4633 49.7725 57.1449 47.4541C54.8312 45.1356 53.396 41.9387 53.396 38.401H66.1979V25.5991C73.2685 25.5991 78.9998 31.3305 78.9998 38.401Z" fill="black"/>
<path d="M66.1982 12.7969V25.5988C62.6653 25.5988 59.4636 27.0292 57.1499 29.3477C54.8315 31.6613 53.401 34.863 53.401 38.3959H40.5991C40.5991 24.2596 52.0618 12.7969 66.1982 12.7969Z" fill="black"/>
<path d="M40.599 38.4006C40.599 41.9335 39.1686 45.1352 36.8501 47.4537C34.5365 49.7673 31.3348 51.2026 27.8019 51.2026C20.7313 51.2026 15 45.4712 15 38.4006H40.599Z" fill="black"/>
</svg>
